<svg xmlns="http://www.w3.org/2000/svg" viewBox="0 0 64 64" fill="none">
  <defs>
    <linearGradient id="g" x1="12" y1="8" x2="52" y2="56" gradientUnits="userSpaceOnUse">
      <stop stop-color="#22d3ee"/>
      <stop offset="1" stop-color="#38bdf8"/>
    </linearGradient>
  </defs>
  <path fill="url(#g)" d="M59 14.6c-2.4 1.7-5.4 2.5-8.5 1.9-3.1-.6-5.8-2.5-7.4-5.2l-1.8 1.8c-2.8 2.8-3.3 7.1-1.2 10.4L15.5 47.9c-1.7 1.7-4.6 1.7-6.3 0L6.1 44.8c-1.3-1.3-3.5-1.3-4.8 0-1.3 1.3-1.3 3.5 0 4.8l4.6 4.6c3.6 3.6 9.5 3.6 13.1 0l24.4-24.4c3.3 2.1 7.6 1.6 10.4-1.2l1.8-1.8c-1.6-1-3-2.5-3.8-4.4-.8-1.9-.9-3.9-.6-5.8l6.7-2.1Z"/>
  <circle cx="51" cy="11" r="4" fill="#0ea5e9"/>
</svg>
