<svg xmlns="http://www.w3.org/2000/svg" viewBox="0 0 640 480" fill="none">
  <defs>
    <radialGradient id="bg" cx="50%" cy="40%" r="70%">
      <stop offset="0%" stop-color="#0ea5e9" stop-opacity="0.28"/>
      <stop offset="60%" stop-color="#22d3ee" stop-opacity="0.12"/>
      <stop offset="100%" stop-color="#22d3ee" stop-opacity="0"/>
    </radialGradient>
    <linearGradient id="stroke" x1="0" y1="0" x2="1" y2="1">
      <stop offset="0%" stop-color="#22d3ee"/>
      <stop offset="100%" stop-color="#38bdf8"/>
    </linearGradient>
    <filter id="blur" x="-50%" y="-50%" width="200%" height="200%">
      <feGaussianBlur stdDeviation="10"/>
    </filter>
  </defs>

  <rect width="640" height="480" fill="url(#bg)"/>

  <!-- Abstract face/circuits profile -->
  <g transform="translate(100,60)" stroke="url(#stroke)" stroke-width="2" fill="none" stroke-linecap="round" stroke-linejoin="round">
    <!-- Profile outline -->
    <path d="M80,60 c60,-40 140,-40 200,0 c40,26 60,64 60,110 c0,46 -20,84 -60,110 c-60,40 -140,40 -200,0 c-40,-26 -60,-64 -60,-110 c0,-46 20,-84 60,-110" opacity="0.45"/>
    <!-- Eye node -->
    <circle cx="230" cy="150" r="12" fill="#0ea5e9"/>
    <circle cx="230" cy="150" r="20" stroke-opacity="0.3"/>
    <!-- Circuit traces -->
    <path d="M230,150 l-28,0 c-20,0 -36,16 -36,36 l0,24"/>
    <path d="M230,150 l30,-12 c22,-9 38,-30 42,-54"/>
    <path d="M180,210 l-28,22 m0,0 l-36,0"/>
    <path d="M280,132 l30,10 l24,36" opacity="0.8"/>
    <path d="M206,150 l-40,-18 c-30,-14 -50,-44 -52,-78" opacity="0.5"/>
    <path d="M150,250 c10,22 34,36 60,36 h40 c26,0 50,-14 60,-36" opacity="0.6"/>
  </g>

  <!-- Soft aura -->
  <g filter="url(#blur)" opacity="0.35">
    <ellipse cx="320" cy="200" rx="170" ry="100" fill="#22d3ee"/>
  </g>

</svg>
